<svg width="95" height="95" viewBox="0 0 95 95" fill="none" xmlns="http://www.w3.org/2000/svg">
<g id="Icons / Social / linkedin">
<path id="Vector" d="M75.2082 11.875C77.3078 11.875 79.3215 12.7091 80.8061 14.1937C82.2908 15.6784 83.1248 17.692 83.1248 19.7916V75.2083C83.1248 77.3079 82.2908 79.3215 80.8061 80.8062C79.3215 82.2908 77.3078 83.1249 75.2082 83.1249H19.7916C17.6919 83.1249 15.6783 82.2908 14.1936 80.8062C12.709 79.3215 11.8749 77.3079 11.8749 75.2083V19.7916C11.8749 17.692 12.709 15.6784 14.1936 14.1937C15.6783 12.7091 17.6919 11.875 19.7916 11.875H75.2082ZM73.229 73.2291V52.25C73.229 48.8276 71.8695 45.5453 69.4495 43.1253C67.0295 40.7053 63.7473 39.3458 60.3249 39.3458C56.9603 39.3458 53.0415 41.4041 51.1415 44.4916V40.0979H40.0978V73.2291H51.1415V53.7145C51.1415 50.6666 53.5957 48.1729 56.6436 48.1729C58.1134 48.1729 59.5229 48.7567 60.5622 49.796C61.6014 50.8353 62.1853 52.2448 62.1853 53.7145V73.2291H73.229ZM27.2332 33.8833C28.9969 33.8833 30.6884 33.1827 31.9355 31.9356C33.1826 30.6885 33.8832 28.997 33.8832 27.2333C33.8832 23.5521 30.9145 20.5437 27.2332 20.5437C25.459 20.5437 23.7575 21.2485 22.503 22.5031C21.2484 23.7576 20.5437 25.4591 20.5437 27.2333C20.5437 30.9146 23.552 33.8833 27.2332 33.8833ZM32.7353 73.2291V40.0979H21.7707V73.2291H32.7353Z" fill="#828282"/>
</g>
</svg>
